<svg width="64" height="64" viewBox="0 0 64 64" xmlns="http://www.w3.org/2000/svg">
<defs><linearGradient id="g" x1="6" y1="6" x2="58" y2="58"><stop stop-color="#FFF4C7"/><stop offset=".45" stop-color="#FDA600"/><stop offset="1" stop-color="#01454A"/></linearGradient></defs>
<rect width="64" height="64" rx="14" fill="#FFFDF6"/>
<circle cx="32" cy="32" r="27" fill="#F4F3EC"/>
<path d="M13 42c13-4 25-8 36-26" stroke="url(#g)" stroke-width="5.5" stroke-linecap="round" fill="none"/>
<path d="M14 43c12 7 27 6 40-8" stroke="#01454A" stroke-width="4.5" stroke-linecap="round" fill="none"/>
<circle cx="28" cy="17" r="3.5" fill="#FDA600"/>
<path d="M25 23c-6 1-10 6-12 12c6-4 10-5 15-8c-3 8-8 14-15 20c10-4 17-11 23-23c4 3 9 3 14-1" stroke="#FDA600" stroke-width="4.5" stroke-linecap="round" stroke-linejoin="round" fill="none"/>
<path d="M50 6l2.2 7 6-3.8-3.7 6.2 7 2.2-7.2 1.5 3.3 6.5-5.8-4-3.3 6.7-.7-7.4-7.1 1.6 5.2-5.1-5.2-5.1 7.2 1.5L50 6z" fill="#FDA600"/>
</svg>